<?xml version="1.0" standalone="no"?>
<!DOCTYPE svg PUBLIC "-//W3C//DTD SVG 20010904//EN"
 "http://www.w3.org/TR/2001/REC-SVG-20010904/DTD/svg10.dtd">
<svg version="1.0" xmlns="http://www.w3.org/2000/svg"
 width="64.000000pt" height="64.000000pt" viewBox="0 0 64.000000 64.000000"
 preserveAspectRatio="xMidYMid meet">

<g transform="translate(0.000000,64.000000) scale(0.100000,-0.100000)"
fill="#000000" stroke="none">
<path d="M387 552 c-34 -38 -9 -102 39 -102 33 0 64 29 64 59 0 54 -68 82
-103 43z m73 -21 c12 -23 5 -47 -16 -55 -21 -8 -42 3 -49 25 -14 42 44 68 65
30z"/>
<path d="M281 400 c-23 -11 -60 -34 -81 -50 -43 -34 -100 -114 -100 -140 0
-14 45 -29 228 -77 125 -33 231 -58 236 -55 15 8 -1 148 -23 197 -57 128 -151
174 -260 125z m89 -44 c0 -12 -71 -46 -98 -46 -24 0 -11 27 21 43 40 20 77 21
77 3z m-130 -74 c0 -5 -9 -17 -19 -26 -21 -19 -37 -7 -27 19 6 16 46 21 46 7z"/>
<path d="M10 20 c0 -6 110 -10 310 -10 200 0 310 4 310 10 0 6 -110 10 -310
10 -200 0 -310 -4 -310 -10z"/>
</g>
</svg>
